<?xml version="1.0" encoding="UTF-8"?>
<svg version="1.1" viewBox="0 0 439.52 439.52" xml:space="preserve" xmlns="http://www.w3.org/2000/svg"><g transform="translate(-327.56 -192.74)"><circle cx="547.32" cy="412.5" r="217.14" fill="#5865f2"/><g transform="matrix(13.222 0 0 13.222 384.38 252.64)" fill="none" stroke="#fff" stroke-linecap="round" stroke-linejoin="round" stroke-width="2"><path d="m15 8a5 5 0 0 1 0 8"/><path d="m17.7 5a9 9 0 0 1 0 14"/><path d="m6 15h-2a1 1 0 0 1-1-1v-4a1 1 0 0 1 1-1h2l3.5-4.5a0.8 0.8 0 0 1 1.5 0.5v14a0.8 0.8 0 0 1-1.5 0.5l-3.5-4.5" fill="#fff" stroke-width="2"/></g></g></svg>